<?xml version="1.0" encoding="iso-8859-1"?>
<!-- Generator: Adobe Illustrator 19.0.0, SVG Export Plug-In . SVG Version: 6.00 Build 0)  -->
<svg version="1.1" id="Capa_1" xmlns="http://www.w3.org/2000/svg" xmlns:xlink="http://www.w3.org/1999/xlink" x="0px" y="0px"
	 viewBox="0 0 512 512" style="enable-background:new 0 0 512 512;" xml:space="preserve">
<rect x="112.279" y="323.369" style="fill:#F3F3F3;" width="287.437" height="170.665"/>
<path d="M399.719,503.018H112.282c-4.961,0-8.983-4.022-8.983-8.983V323.368c0-4.961,4.022-8.983,8.983-8.983h287.439
	c4.961,0,8.983,4.022,8.983,8.983v170.667C408.702,498.995,404.68,503.018,399.719,503.018z M121.263,485.052h269.474V332.35
	H121.263V485.052z"/>
<path style="fill:#595959;" d="M480.561,503.018H31.439V402.921c0-43.938,39.352-79.553,87.898-79.553L256,503.016l136.663-179.648
	c48.546,0,87.898,35.615,87.898,79.553L480.561,503.018L480.561,503.018z"/>
<path d="M480.561,512H31.439c-4.961,0-8.983-4.022-8.983-8.983V402.921c0-48.821,43.461-88.534,96.88-88.534
	c2.805,0,5.45,1.311,7.149,3.544L256,488.18L385.513,317.93c1.697-2.233,4.342-3.544,7.149-3.544
	c53.421,0,96.882,39.715,96.882,88.534v100.097C489.544,507.978,485.522,512,480.561,512z M274.119,494.035H471.58v-91.114
	c0-37.601-33.053-68.43-74.544-70.465L274.119,494.035z M40.421,494.035h197.461l-122.917-161.58
	c-41.492,2.036-74.544,32.864-74.544,70.464V494.035z"/>
<path style="fill:#FFDD95;" d="M322.974,305.403H189.027c-32.462,0-58.782-26.318-58.782-58.782V84.53
	c0-11.96,9.692-21.652,21.652-21.652h208.204c11.96,0,21.652,9.692,21.652,21.652v162.093
	C381.754,279.085,355.436,305.403,322.974,305.403z"/>
<path d="M322.974,314.385H189.027c-37.364,0-67.763-30.399-67.763-67.763V84.528c0-16.892,13.741-30.633,30.633-30.633h208.204
	c16.894,0,30.635,13.741,30.635,30.633v162.094C390.737,283.987,360.337,314.385,322.974,314.385z M151.897,71.859
	c-6.985,0-12.669,5.685-12.669,12.669v162.094c0,27.461,22.339,49.798,49.798,49.798h133.948c27.461,0,49.798-22.337,49.798-49.798
	V84.528c0-6.985-5.685-12.669-12.672-12.669H151.897z"/>
<path style="fill:#777777;" d="M347.298,125.754H130.246V46.412c0-20.673,16.756-37.43,37.43-37.43h241.027V64.35
	C408.702,98.264,381.212,125.754,347.298,125.754z"/>
<path d="M347.299,134.737H130.246c-4.961,0-8.983-4.022-8.983-8.983V46.412C121.263,20.821,142.084,0,167.675,0h241.027
	c4.961,0,8.983,4.022,8.983,8.983v55.369C417.685,103.162,386.109,134.737,347.299,134.737z M139.228,116.772h208.071
	c28.903,0,52.421-23.515,52.421-52.421V17.965H167.675c-15.687,0-28.447,12.761-28.447,28.447
	C139.228,46.412,139.228,116.772,139.228,116.772z"/>
<path style="fill:#26BBEC;" d="M278.457,350.316h-44.913c-12.4,0-22.456-10.056-22.456-22.456l0,0
	c0-12.4,10.056-22.456,22.456-22.456h44.913c12.4,0,22.456,10.056,22.456,22.456l0,0
	C300.913,340.26,290.857,350.316,278.457,350.316z"/>
<path d="M278.457,359.298h-44.913c-17.336,0-31.438-14.105-31.438-31.438s14.103-31.438,31.438-31.438h44.913
	c17.333,0,31.438,14.105,31.438,31.438S295.79,359.298,278.457,359.298z M233.544,314.385c-7.429,0-13.473,6.044-13.473,13.473
	c0,7.429,6.044,13.473,13.473,13.473h44.913c7.429,0,13.473-6.044,13.473-13.473c0-7.429-6.044-13.473-13.473-13.473H233.544z"/>
<polygon style="fill:#FFFFFF;" points="157.193,386.246 157.193,305.403 256,305.403 "/>
<path d="M157.191,395.228c-1.305,0-2.618-0.285-3.844-0.864c-3.136-1.487-5.136-4.649-5.136-8.118v-80.842
	c0-4.961,4.022-8.983,8.983-8.983H256c3.798,0,7.184,2.386,8.46,5.961c1.276,3.578,0.166,7.57-2.772,9.974l-98.807,80.842
	C161.246,394.535,159.229,395.228,157.191,395.228z M166.176,314.385v52.903l64.66-52.903H166.176z"/>
<polygon style="fill:#FFFFFF;" points="354.807,386.246 354.807,305.403 256,305.403 "/>
<path d="M354.807,395.228c-2.036,0-4.053-0.693-5.688-2.031l-98.807-80.842c-2.939-2.404-4.048-6.395-2.772-9.974
	c1.276-3.575,4.664-5.961,8.46-5.961h98.807c4.961,0,8.983,4.022,8.983,8.983v80.842c0,3.469-2,6.631-5.136,8.118
	C357.43,394.943,356.115,395.228,354.807,395.228z M281.163,314.385l64.662,52.903v-52.903H281.163z"/>
<polygon style="fill:#26BBEC;" points="282.948,503.018 229.054,503.018 238.035,350.316 273.965,350.316 "/>
<path d="M282.948,512h-53.895c-2.473,0-4.837-1.022-6.535-2.82c-1.698-1.798-2.577-4.219-2.432-6.688l8.983-152.702
	c0.278-4.75,4.21-8.456,8.967-8.456h35.93c4.754,0,8.688,3.706,8.965,8.456l8.983,152.702c0.149,2.469-0.732,4.89-2.43,6.688
	C287.785,510.977,285.421,512,282.948,512z M238.579,494.035h34.842l-7.925-134.737h-18.991L238.579,494.035z"/>
<g>
</g>
<g>
</g>
<g>
</g>
<g>
</g>
<g>
</g>
<g>
</g>
<g>
</g>
<g>
</g>
<g>
</g>
<g>
</g>
<g>
</g>
<g>
</g>
<g>
</g>
<g>
</g>
<g>
</g>
</svg>
